<?xml version="1.0" encoding="utf-8"?>
<!-- Generator: Adobe Illustrator 18.1.1, SVG Export Plug-In . SVG Version: 6.00 Build 0)  -->
<!DOCTYPE svg PUBLIC "-//W3C//DTD SVG 1.1//EN" "http://www.w3.org/Graphics/SVG/1.1/DTD/svg11.dtd">
<svg version="1.1" id="Layer_1" xmlns="http://www.w3.org/2000/svg" xmlns:xlink="http://www.w3.org/1999/xlink" x="0px" y="0px"
	 viewBox="0 0 256 256" enable-background="new 0 0 256 256" xml:space="preserve">
<circle fill="#90272A" cx="128" cy="128" r="128"/>
<path fill="#68181D" d="M256,128C256,57.3,198.7,0,128,0v256C198.7,256,256,198.7,256,128z"/>
<path fill="none" stroke="#114D8A" stroke-width="3" stroke-linecap="round" stroke-miterlimit="10" d="M110.1,77.7
	c0,0,16.1-7.4,34.5,0"/>
<path fill="none" d="M80.6,123.1c-2.2,0-3.4,1.3-3.4,3.5c0.1,2,1.4,3,3.3,3.3c2.1-0.3,3.4-1.4,3.4-3.6
	C83.8,124.4,82.6,123.1,80.6,123.1z"/>
<path fill="#FCFAF0" d="M189.4,105.1C181,83.5,165,70.4,142.6,64.7c-0.2-0.1-1.4-0.3-3.2-0.5c-3.2,3.1-7.5,5.1-12.3,5.1
	c-4.9,0-9.3-2-12.5-5.2c-3.2,0.2-6,0.6-8.2,1.2C80.1,72.2,60.4,95,57.7,121c-1.4,0-2.8,0.3-4.2,0.8c-6.4,2.5-9.6,9.7-7.1,16.1
	l8.3,21.3c2.5,6.4,9.7,9.6,16.1,7.1c3.6-1.4,6.2-4.3,7.3-7.7c2,12.2,3.9,24.3,5.8,36.5c0.3,2.1,26.5,4.1,34.7,2.6
	c6-1.1,6.1-1.2,5.8-7.3c-0.3-4.8-1.3-13.5,8.2-17.5c1.9-0.8,4.9-1.1,7.6-0.5c10.8,2.2,8.4,12.7,8.3,17.6c0,1.8,0,3.7-0.3,5.5
	c-0.3,2.2,0.6,3.1,2.7,3.4c9.8,1.3,17.7,0.7,29.4-0.4c2.1-0.2,2.8-0.3,3-2.3c0.4-4.4,5.1-41.3,8.6-55.2
	C194.9,128.8,193.9,116.8,189.4,105.1z M82.1,114.1c2,0,3.2,1.2,3.3,3.2c0.1,2.2-1.3,3.3-3.4,3.6c-1.9-0.3-3.3-1.3-3.3-3.3
	C78.7,115.4,80,114.1,82.1,114.1z"/>
<path fill="none" stroke="#F9F9F9" stroke-width="3" stroke-linecap="round" stroke-miterlimit="10" d="M187.9,108.2
	c0,0,19.4,2.1,11.6-12.6c-5.5-10.4-11.6-3.3-8.8,1.8c2.8,5,14.5,12.5,19.3,3.9c2.5-4.5-4.4-11-4.4-11"/>
<polygon fill="#FCFAF0" stroke="#FDF9F0" stroke-width="1.5" stroke-linecap="round" stroke-linejoin="round" stroke-miterlimit="10" points="
	75.9,90.3 69.6,72.3 98.2,74.1 "/>
<polygon fill="#FCFAF0" stroke="#FDF9F0" stroke-width="1.5" stroke-linecap="round" stroke-linejoin="round" stroke-miterlimit="10" points="
	70.1,98.4 64.4,82.3 90.1,83.9 "/>
<path fill="none" stroke="#90272A" stroke-width="3" stroke-linecap="round" stroke-miterlimit="10" d="M111.6,81.3
	c0,0,16.1-7.4,34.5,0"/>
<path fill="#FCFAF0" d="M141.4,64.4c3.7-3.7,6-8.7,6-14.4c0-11.1-9-20.1-20.1-20.1c-11.1,0-20.1,9-20.1,20.1
	c0,5.5,2.2,10.5,5.8,14.2C122.9,63.5,135.4,63.9,141.4,64.4z"/>
<path fill="#90272A" d="M127.4,70.2c5.5,0,10.5-2.2,14.1-5.8c-6.1-0.5-18.5-0.9-28.4-0.2C116.8,67.9,121.8,70.2,127.4,70.2z"/>
<g>
	<path fill="#90272A" d="M126.2,57.8v-2c-1.4-0.1-2.7-0.4-3.5-0.9l0.6-2.4c0.9,0.5,2.1,0.9,3.4,0.9c1.2,0,2-0.5,2-1.3
		c0-0.8-0.7-1.3-2.2-1.8c-2.2-0.7-3.7-1.8-3.7-3.8c0-1.8,1.3-3.3,3.5-3.7v-2h2v1.8c1.4,0.1,2.3,0.4,3,0.7l-0.6,2.3
		c-0.5-0.2-1.5-0.7-3-0.7c-1.3,0-1.8,0.6-1.8,1.2c0,0.7,0.7,1.1,2.5,1.8c2.5,0.9,3.5,2,3.5,3.9c0,1.8-1.3,3.4-3.7,3.8v2.1H126.2z"/>
</g>
<g>
	<g>
		<path fill="#90272A" d="M133.8,139.9l-1.3,0C132.9,140,133.3,140,133.8,139.9L133.8,139.9z"/>
		<path fill="#90272A" d="M120.8,139.9L120.8,139.9c0.4,0.1,0.8,0.1,1.2,0L120.8,139.9z"/>
		<path fill="#90272A" d="M133.8,125.2l0-3.1l-13,0l0,3.1c1.5,0,3,0.1,3,1.6c0,2.5,0,9.1,0,11.9c-0.1,0.8-0.9,1.1-1.8,1.2
			c-0.4,0.1-0.8,0.1-1.2,0.1l0,3.1l13,0l0-3.1c-0.4,0-0.9,0-1.3-0.1c-1-0.1-1.7-0.5-1.7-1.5c0-1.6,0-10.9,0-11.8
			C130.8,125.3,132.6,125.2,133.8,125.2z"/>
	</g>
	<path fill="#90272A" d="M136,113.1l0-3.1l14.2,0l0,3.1c-1.8,0-3.6,0.1-3.6,1.7c0,1.5-0.1,28.2-0.1,28.2l-10.6,0l0-3.2
		c1.9,0,3.7-0.3,3.7-1.9c0-5,0-18.5,0.1-23.1C139.7,113.2,138.1,113.1,136,113.1z"/>
	<path fill="#90272A" d="M118.7,113.1l0-3.1l-14.2,0l0,3.1c1.8,0,3.6,0.1,3.6,1.8c0,1.5-0.1,28.2-0.1,28.2l10.6,0l0-3.2
		c-1.9,0-3.7-0.3-3.7-1.9c0-5,0-18.5,0.1-23.1C115,113.2,116.5,113.1,118.7,113.1z"/>
</g>
</svg>
